# File created by Blade
# Date/Time:  Thu Sep 25 19:43:58 2014
# Frame Rate: 120.000 fps
#------------------------------------------------------
:FULLY-SPECIFIED
:DEGREES
1266
root -2.385121 33.043751 -3.939162 11.301264 3.168441 -0.905579
Spine -11.129386 5.565961 0.362392
Head -26.035028 -10.155105 7.433752
LeftShoulder -16.223796 17.367803 30.462150
LeftArm 16.400649 -24.181973 -25.747628
LeftForeArm 15.094622 -0.000000 11.507853
LeftHand -25.737203 -0.000000 -12.332496
LeftHandThumb1 -26.253704 0.000000 33.147579
RightShoulder -21.350148 14.709384 -44.265096
RightArm -5.282933 10.620809 24.958722
RightForeArm -29.998406 0.000000 13.050866
RightHand -12.525976 -0.000000 8.626323
RightHandThumb1 -24.326973 -0.000000 -32.862282
LeftUpLeg -4.966037 2.888938 0.260186
LeftLeg -1.610011 -0.000000 0.000000
LeftFoot -9.249152 2.908670 -16.262245
LeftToeBase 10.180505 -0.000000 -0.000000
RightUpLeg -5.381805 -3.170486 2.864509
RightLeg 1.163273 -0.000000 -0.000000
RightFoot -9.849633 -7.620843 1.421358
RightToeBase 1.150109 -0.000000 -0.000000
1267
root -2.401521 33.043988 -3.961848 11.197205 3.315169 -0.900653
Spine -10.971272 5.332228 0.377093
Head -26.122905 -9.940813 7.554978
LeftShoulder -16.201000 17.156061 30.561331
LeftArm 16.359800 -23.807900 -25.906267
LeftForeArm 15.084012 0.000000 11.381578
LeftHand -25.617101 -0.000000 -12.446648
LeftHandThumb1 -26.253704 0.000000 33.147579
RightShoulder -21.290349 14.738262 -44.095969
RightArm -5.309735 10.717713 25.290041
RightForeArm -29.886627 0.000000 12.891640
RightHand -12.544187 -0.000000 9.326981
RightHandThumb1 -24.326973 -0.000000 -32.862282
LeftUpLeg -4.930893 2.866040 0.289782
LeftLeg -1.585139 -0.000000 0.000000
LeftFoot -9.229923 2.860473 -16.217982
LeftToeBase 10.196507 -0.000000 -0.000000
RightUpLeg -5.362741 -3.206360 2.913545
RightLeg 1.268314 -0.000000 -0.000000
RightFoot -9.913383 -7.743715 1.335441
RightToeBase 1.227965 -0.000000 -0.000000
1268
root -2.419788 33.043352 -3.987071 11.132177 3.426978 -0.894645
Spine -10.874426 5.201647 0.370374
Head -26.181107 -9.812049 7.673082
LeftShoulder -16.101659 17.088167 30.597241
LeftArm 16.368964 -23.761310 -26.077374
LeftForeArm 15.090689 -0.000000 11.310802
LeftHand -25.445646 -0.000000 -12.895504
LeftHandThumb1 -26.253704 0.000000 33.147579
RightShoulder -21.252833 14.717095 -43.967253
RightArm -5.363328 10.722334 25.660866
RightForeArm -29.794393 0.000000 12.740448
RightHand -12.553102 -0.000000 9.771161
RightHandThumb1 -24.326973 -0.000000 -32.862282
LeftUpLeg -4.942686 2.879921 0.314304
LeftLeg -1.542798 -0.000000 0.000000
LeftFoot -9.216005 2.779025 -16.189313
LeftToeBase 10.206301 -0.000000 -0.000000
RightUpLeg -5.346853 -3.138244 2.950700
RightLeg 1.295442 -0.000000 -0.000000
RightFoot -9.930010 -7.983158 1.297457
RightToeBase 1.185275 -0.000000 -0.000000
1269
root -2.436203 33.041204 -4.012977 11.058230 3.552753 -0.876110
Spine -10.753900 5.076811 0.344132
Head -26.207237 -9.618269 7.752380
LeftShoulder -15.999422 17.043577 30.611660
LeftArm 16.434918 -23.513190 -26.169577
LeftForeArm 14.984342 -0.000000 11.180030
LeftHand -25.429205 -0.000000 -13.048599
LeftHandThumb1 -26.253704 0.000000 33.147579
RightShoulder -21.250391 14.670918 -43.813764
RightArm -5.391749 10.710410 26.029526
RightForeArm -29.650974 -0.000000 12.618417
RightHand -12.582050 -0.000000 10.235824
RightHandThumb1 -24.326973 -0.000000 -32.862282
LeftUpLeg -4.935836 2.831383 0.336070
LeftLeg -1.530389 -0.000000 0.000000
LeftFoot -9.137546 2.719959 -16.322934
LeftToeBase 9.936764 -0.000000 -0.000000
RightUpLeg -5.350104 -3.205671 2.981658
RightLeg 1.379784 -0.000000 -0.000000
RightFoot -10.006880 -8.057809 1.267976
RightToeBase 1.223877 -0.000000 -0.000000
1270
root -2.449007 33.037479 -4.038395 11.013943 3.655742 -0.811979
Spine -10.684906 4.964184 0.263838
Head -26.198686 -9.484944 7.834841
LeftShoulder -15.910823 17.034018 30.638225
LeftArm 16.533526 -23.303644 -26.296531
LeftForeArm 14.963285 0.000000 11.075313
LeftHand -25.370627 -0.000000 -13.127396
LeftHandThumb1 -26.253704 0.000000 33.147579
RightShoulder -21.234914 14.624889 -43.662623
RightArm -5.427520 10.717448 26.384911
RightForeArm -29.640442 0.000000 12.480242
RightHand -12.310152 -0.000000 10.646396
RightHandThumb1 -24.326973 -0.000000 -32.862282
LeftUpLeg -4.930005 2.686115 0.302393
LeftLeg -1.555017 -0.000000 0.000000
LeftFoot -9.212197 2.851193 -16.041145
LeftToeBase 10.315244 -0.000000 -0.000000
RightUpLeg -5.417224 -3.386058 2.964216
RightLeg 1.545770 -0.000000 -0.000000
RightFoot -10.148597 -8.007699 1.188922
RightToeBase 1.240868 -0.000000 -0.000000
1271
root -2.464813 33.035067 -4.063168 10.938957 3.755848 -0.779135
Spine -10.568767 4.765182 0.234753
Head -26.220444 -9.201055 7.945785
LeftShoulder -15.934419 17.123541 30.589470
LeftArm 16.640720 -23.058537 -26.387414
LeftForeArm 14.915350 -0.000000 11.099079
LeftHand -25.146669 -0.000000 -13.351589
LeftHandThumb1 -26.253704 0.000000 33.147579
RightShoulder -21.165224 14.680570 -43.451420
RightArm -5.423000 10.643547 26.704427
RightForeArm -29.696556 0.000000 12.393552
RightHand -12.150864 0.000000 11.216399
RightHandThumb1 -24.326973 -0.000000 -32.862282
LeftUpLeg -4.921997 2.612016 0.308197
LeftLeg -1.525210 -0.000000 0.000000
LeftFoot -9.221713 2.841119 -16.040044
LeftToeBase 10.395368 -0.000000 -0.000000
RightUpLeg -5.408207 -3.467595 2.969308
RightLeg 1.612063 -0.000000 -0.000000
RightFoot -10.227265 -8.003470 1.170861
RightToeBase 1.266751 -0.000000 -0.000000
1272
root -2.482485 33.032504 -4.090172 10.907053 3.787461 -0.755276
Spine -10.503247 4.711021 0.183501
Head -26.212149 -8.997179 8.032744
LeftShoulder -15.897919 17.210235 30.544019
LeftArm 16.796519 -22.965868 -26.505662
LeftForeArm 14.882797 -0.000000 11.060688
LeftHand -25.018808 -0.000000 -13.412023
LeftHandThumb1 -26.253704 0.000000 33.147579
RightShoulder -21.053782 14.765536 -43.297446
RightArm -5.652541 10.563934 26.991658
RightForeArm -29.682147 -0.000000 12.414908
RightHand -12.073489 -0.000000 11.640312
RightHandThumb1 -24.326973 -0.000000 -32.862282
LeftUpLeg -4.953746 2.583044 0.315376
LeftLeg -1.501108 -0.000000 0.000000
LeftFoot -9.217773 2.845960 -16.017415
LeftToeBase 10.366139 -0.000000 -0.000000
RightUpLeg -5.466273 -3.480253 2.976940
RightLeg 1.707590 -0.000000 -0.000000
RightFoot -10.290185 -8.004733 1.166871
RightToeBase 1.202569 -0.000000 -0.000000
1273
root -2.497624 33.030157 -4.116543 10.897864 3.829776 -0.740332
Spine -10.483872 4.658155 0.162730
Head -26.165224 -8.826635 8.078354
LeftShoulder -15.849221 17.245320 30.530840
LeftArm 16.953530 -22.873386 -26.684452
LeftForeArm 14.854627 -0.000000 11.035593
LeftHand -24.845184 -0.000000 -13.462138
LeftHandThumb1 -26.253704 0.000000 33.147579
RightShoulder -21.028143 14.749175 -43.111827
RightArm -5.598663 10.498233 27.320170
RightForeArm -29.506440 0.000000 12.254140
RightHand -11.959310 -0.000000 11.903545
RightHandThumb1 -24.326973 -0.000000 -32.862282
LeftUpLeg -5.023318 2.564136 0.323927
LeftLeg -1.442722 -0.000000 0.000000
LeftFoot -9.245370 2.843945 -15.966128
LeftToeBase 10.404782 -0.000000 -0.000000
RightUpLeg -5.540267 -3.485831 2.989354
RightLeg 1.787640 -0.000000 -0.000000
RightFoot -10.345895 -8.019660 1.156915
RightToeBase 1.216000 -0.000000 -0.000000
1274
root -2.511204 33.028163 -4.142529 10.900694 3.859884 -0.721752
Spine -10.491619 4.604317 0.160546
Head -26.097247 -8.645877 8.057818
LeftShoulder -15.804227 17.341685 30.471699
LeftArm 17.123634 -22.773054 -26.831190
LeftForeArm 14.779335 -0.000000 11.052584
LeftHand -24.908843 -0.000000 -13.394472
LeftHandThumb1 -26.253704 0.000000 33.147579
RightShoulder -20.989799 14.746757 -42.968717
RightArm -5.578049 10.454561 27.637369
RightForeArm -29.450663 0.000000 12.171920
RightHand -11.880521 -0.000000 12.141456
RightHandThumb1 -24.326973 -0.000000 -32.862282
LeftUpLeg -5.098945 2.507749 0.331682
LeftLeg -1.396571 -0.000000 0.000000
LeftFoot -9.253081 2.869270 -15.945248
LeftToeBase 10.369791 -0.000000 -0.000000
RightUpLeg -5.617836 -3.480149 2.991761
RightLeg 1.857263 -0.000000 -0.000000
RightFoot -10.391586 -8.026694 1.184652
RightToeBase 1.212660 -0.000000 -0.000000
